<svg width="580" height="400" xmlns="http://www.w3.org/2000/svg">
 <!-- Created with Method Draw - http://github.com/duopixel/Method-Draw/ -->

 <g>
  <title>background</title>
  <rect fill="#fff" id="canvas_background" height="402" width="582" y="-1" x="-1"/>
  <g display="none" overflow="visible" y="0" x="0" height="100%" width="100%" id="canvasGrid">
   <rect fill="url(#gridpattern)" stroke-width="0" y="0" x="0" height="100%" width="100%"/>
  </g>
 </g>
 <g>
  <title fill="#d9751e">Layer 1</title>
  <path fill="#d9751e" id="svg_4" d="m13.382709,5.642573c1.181232,0 2.284845,-0.74784 2.677176,-1.942582l-2.030532,-0.709427l3.813107,0.140667c0.008477,0.000264 0.016954,0.000264 0.025431,0.000264c0.362927,0 0.663599,-0.287427 0.677109,-0.653002c0.013775,-0.374053 -0.27842,-0.688765 -0.652737,-0.702275l-1.920859,-0.070996c-0.456704,-1.061228 -1.494619,-1.705222 -2.590815,-1.705222c-1.986026,0 -3.353224,2.009603 -2.621545,3.858937c0.438426,1.107852 1.500447,1.783636 2.623664,1.783636zm0,0"/>
  <path fill="#d9751e" id="svg_5" d="m9.281116,25.065473c-2.66658,0 -4.828506,2.161662 -4.828506,4.828241c0,2.666844 2.161926,4.828506 4.828506,4.828506s4.828505,-2.161662 4.828505,-4.828506c-0.000264,-2.666579 -2.161926,-4.828241 -4.828505,-4.828241zm0,6.423261c-0.880825,0 -1.595021,-0.714196 -1.595021,-1.59502s0.714196,-1.594755 1.595021,-1.594755s1.59502,0.713931 1.59502,1.594755c-0.000265,0.880824 -0.714196,1.59502 -1.59502,1.59502zm0,0"/>
  <path fill="#d9751e" id="svg_6" d="m25.735969,25.065473c-2.666843,0 -4.828505,2.161662 -4.828505,4.828241c0,2.666844 2.161662,4.828506 4.828505,4.828506c2.66658,0 4.828241,-2.161662 4.828241,-4.828506c0,-2.666579 -2.161662,-4.828241 -4.828241,-4.828241zm0,6.423261c-0.880824,0 -1.59502,-0.714196 -1.59502,-1.59502s0.714196,-1.594755 1.59502,-1.594755c0.880825,0 1.594756,0.713931 1.594756,1.594755s-0.713931,1.59502 -1.594756,1.59502zm0,0"/>
  <path fill="#d9751e" id="svg_7" d="m29.478876,21.509593c0.338289,-4.445712 -3.742907,-6.263521 -3.742907,-6.263521l-0.98096,-1.96086l-0.319746,-1.274745l1.271035,0c0.632604,0 1.16984,-0.517633 1.15792,-1.150237c-0.011391,-0.613531 -0.512335,-1.107322 -1.12825,-1.107322l-2.747111,0c-0.126362,0 -0.250075,0.021722 -0.366635,0.061989c0.235505,-0.316567 0.332726,-0.73221 0.229677,-1.144674c-0.182523,-0.730091 -0.92215,-1.174079 -1.652241,-0.991292l-4.779497,1.15474l0,-0.201596c0,-1.032882 -0.837379,-1.870261 -1.870261,-1.870261l-3.42475,0c-1.032882,0 -1.870526,0.837114 -1.870526,1.870261l0,9.548398l-1.633432,0c0.464916,0 0.841882,-0.376966 0.841882,-0.841882l0,-7.959736c0,-0.465181 -0.376966,-0.842147 -0.841882,-0.842147l-6.165239,0c-0.465181,0 -0.842147,0.376966 -0.842147,0.842147l0,7.959736c0,0.464916 0.376966,0.841882 0.842147,0.841882l2.178086,0c-0.349681,0 -0.633398,0.283719 -0.633398,0.633399l0,2.796914c0,0.349681 0.283718,0.633134 0.633398,0.633134l0.789431,0c-2.15292,1.369847 -3.647804,3.591114 -4.076692,6.13239c-0.135104,0.800027 0.490082,1.527203 1.3015,1.527203c0.64532,0 1.190769,-0.468095 1.300441,-1.104143c0.520548,-3.022617 3.16143,-5.331304 6.332397,-5.331304c3.546079,0 6.431738,2.888044 6.425645,6.435447l3.603564,0c-0.001589,-1.015133 0.235505,-2.040863 0.737773,-2.994272l-1.135932,0c0.240538,-0.162125 0.441339,-0.389417 0.57141,-0.672076l3.168318,-6.884998c0.45432,-0.987318 -0.162124,-2.139144 -1.238982,-2.305243l-4.992749,-0.770622l0,-2.330409c-0.281599,-0.061724 -0.759496,0.018279 -1.133018,-0.390212l-2.641413,-2.89705l3.157721,2.132787c0.179608,0.121328 0.385443,0.197887 0.600814,0.223848c5.438592,0.646909 5.143219,0.623862 5.297926,0.623862c0.680288,0 1.268121,-0.508626 1.351038,-1.200835c0.089275,-0.747045 -0.443724,-1.425214 -1.191033,-1.514488l-4.807048,-0.574854l-2.88407,-1.948144l2.66658,0.993411l5.088646,0.608497c1.257791,0.150469 2.200603,1.307064 2.040333,2.56353c-0.101725,0.795523 -0.60214,1.443492 -1.275804,1.768536l1.94788,7.769531c0.126097,0.503063 0.575383,0.864134 1.094076,0.86387c3.811518,-0.00159 6.913608,3.095202 6.920231,6.904602l0,0.021193c0,0.623332 0.505183,1.128779 1.128514,1.128779c0.614855,0 1.114739,-0.491407 1.128515,-1.102818c0.000264,-0.011656 0.000264,-0.024107 0.000264,-0.034703c0,-3.726482 -2.233187,-6.940894 -5.431439,-8.375644zm-12.503464,0.734329c0.349681,0 0.633133,-0.283453 0.633133,-0.633134l0,-1.833969l1.157125,0.17855l-2.134906,4.63883c-0.673399,-0.932216 -1.519785,-1.731449 -2.492004,-2.350277l2.836651,0zm0,0"/>
  <g id="svg_8"/>
 </g>
</svg>